<svg id="visual" viewBox="0 0 960 540" width="960" height="540" xmlns="http://www.w3.org/2000/svg" xmlns:xlink="http://www.w3.org/1999/xlink" version="1.1"><g transform="translate(472.0552319739443 323.03877595661936)"><path d="M130.7 -210.7C164 -181.9 182.1 -136.6 189.9 -94.2C197.8 -51.7 195.4 -12 182.2 20.7C169 53.4 145 79.1 120.9 102C96.8 124.9 72.6 144.9 47.7 143.7C22.8 142.4 -2.9 119.8 -25.3 104.7C-47.7 89.7 -66.9 82.2 -88.6 69.8C-110.2 57.4 -134.3 40.1 -152.1 12.9C-169.9 -14.2 -181.4 -51.1 -177.9 -90.7C-174.5 -130.2 -156.2 -172.4 -124 -201.7C-91.9 -231 -46 -247.5 1.4 -249.6C48.7 -251.7 97.3 -239.4 130.7 -210.7" fill="#e67c20"></path></g></svg>